{
    "asset": {
        "version": "2.0",
        "generator": "Open Asset Import Library (assimp v5.0.5eb040c7)"
    },
    "accessors": [
        {
            "bufferView": 0,
            "byteOffset": 0,
            "componentType": 5126,
            "count": 688,
            "type": "VEC3",
            "max": [
                1.4520000219345093,
                1.4520000219345093,
                6.978917121887207
            ],
            "min": [
                -1.4520000219345093,
                -1.4520000219345093,
                -3.0
            ]
        },
        {
            "bufferView": 1,
            "byteOffset": 0,
            "componentType": 5126,
            "count": 688,
            "type": "VEC3",
            "max": [
                1.0,
                0.9993668794631958,
                0.8697087168693543
            ],
            "min": [
                -1.0,
                -1.0,
                -1.0
            ]
        },
        {
            "bufferView": 2,
            "byteOffset": 0,
            "componentType": 5126,
            "count": 688,
            "type": "VEC2",
            "max": [
                0.9475560188293457,
                0.9277729988098145
            ],
            "min": [
                0.03386300057172775,
                0.030552029609680177
            ]
        },
        {
            "bufferView": 3,
            "byteOffset": 0,
            "componentType": 5125,
            "count": 2364,
            "type": "SCALAR",
            "max": [
                687
            ],
            "min": [
                0
            ]
        }
    ],
    "buffers": [
        {
            "byteLength": 31472,
            "uri": "result.bin"
        }
    ],
    "bufferViews": [
        {
            "buffer": 0,
            "byteOffset": 0,
            "byteLength": 8256,
            "target": 34962
        },
        {
            "buffer": 0,
            "byteOffset": 8256,
            "byteLength": 8256,
            "target": 34962
        },
        {
            "buffer": 0,
            "byteOffset": 16512,
            "byteLength": 5504,
            "target": 34962
        },
        {
            "buffer": 0,
            "byteOffset": 22016,
            "byteLength": 9456,
            "target": 34963
        }
    ],
    "materials": [
        {
            "name": "DefaultMaterial",
            "pbrMetallicRoughness": {
                "baseColorFactor": [
                    0.6000000238418579,
                    0.6000000238418579,
                    0.6000000238418579,
                    1.0
                ],
                "metallicFactor": 0.0
            }
        },
        {
            "name": "None",
            "pbrMetallicRoughness": {
                "baseColorFactor": [
                    0.6000000238418579,
                    0.6000000238418579,
                    0.6000000238418579,
                    1.0
                ],
                "metallicFactor": 0.0
            }
        }
    ],
    "meshes": [
        {
            "name": "Lanterna_Cylinder",
            "primitives": [
                {
                    "mode": 4,
                    "material": 1,
                    "indices": 3,
                    "attributes": {
                        "POSITION": 0,
                        "NORMAL": 1,
                        "TEXCOORD_0": 2
                    }
                }
            ]
        }
    ],
    "nodes": [
        {
            "name": "input.obj",
            "children": [
                1
            ]
        },
        {
            "name": "Lanterna_Cylinder",
            "mesh": 0
        }
    ],
    "scenes": [
        {
            "nodes": [
                0
            ]
        }
    ],
    "scene": 0
}